 <svg version="1.0" xmlns="http://www.w3.org/2000/svg"  width="300.000000pt" height="230.000000pt" viewBox="0 0 300.000000 230.000000"  preserveAspectRatio="xMidYMid meet">  <g transform="translate(0.000000,230.000000) scale(0.100000,-0.100000)" fill="#000000" stroke="none"> <path d="M1303 2274 c-227 -59 -406 -208 -514 -425 -133 -267 -120 -563 33 -791 l38 -57 -91 -146 c-53 -85 -88 -152 -85 -161 9 -22 891 -20 992 3 523 119 793 688 553 1166 -95 189 -288 347 -494 407 -77 22 -354 25 -432 4z m395 -45 c278 -73 464 -258 549 -544 26 -86 25 -305 -1 -395 -63 -215 -227 -410 -413 -491 -134 -59 -155 -61 -498 -65 -176 -2 -380 -5 -453 -7 -72 -1 -132 1 -132 5 0 4 36 64 80 133 44 69 80 133 80 141 0 9 -12 30 -26 47 -54 65 -106 188 -123 297 -40 247 20 464 176 641 103 117 234 200 375 239 91 25 289 24 386 -1z"/> <path d="M1620 1993 c-65 -20 -105 -73 -116 -150 -11 -86 18 -146 100 -211 20 -16 21 -73 1 -138 -11 -36 -15 -101 -15 -251 l0 -203 25 -16 c30 -19 63 -11 70 19 10 37 -1 429 -13 485 -15 71 -7 103 31 127 121 78 91 311 -43 338 -14 3 -32 3 -40 0z m76 -48 c47 -32 69 -135 44 -201 -10 -26 -83 -104 -98 -104 -16 0 -84 72 -97 105 -30 70 -9 166 43 198 34 21 81 22 108 2z m-36 -675 c0 -179 -6 -220 -28 -206 -14 9 -13 373 0 400 21 39 28 -11 28 -194z"/> <path d="M1269 1953 c0 -10 -2 -29 -4 -43 -2 -14 -7 -66 -11 -115 -6 -86 -6 -92 18 -120 14 -17 30 -40 36 -52 13 -24 13 -7 6 -331 -6 -263 -4 -276 45 -270 l26 3 -1 230 c0 127 -3 255 -5 286 -3 58 -2 61 67 156 14 20 15 34 3 130 -7 59 -12 116 -11 126 0 9 -6 17 -15 17 -14 0 -15 -15 -9 -131 5 -117 5 -130 -10 -127 -14 3 -16 20 -15 131 2 111 0 127 -14 127 -15 0 -16 -15 -13 -130 2 -99 0 -130 -9 -130 -10 0 -13 33 -13 130 0 80 -4 130 -10 130 -6 0 -10 -49 -10 -128 0 -113 -2 -129 -16 -129 -15 0 -16 14 -10 129 5 110 4 128 -9 128 -8 0 -15 -8 -16 -17z m117 -267 c6 -15 -23 -66 -37 -66 -9 0 -39 53 -39 70 0 16 70 12 76 -4z m-24 -503 c-2 -63 -7 -113 -13 -113 -11 0 -12 374 -1 385 10 10 18 -140 14 -272z"/> <path d="M73 286 c-86 -39 -62 -144 37 -161 41 -7 76 -37 65 -54 -11 -18 -78 -12 -114 10 -18 11 -34 19 -35 17 -1 -2 -7 -15 -14 -30 -11 -26 -9 -29 18 -43 33 -17 74 -20 65 -5 -4 6 8 10 28 10 23 0 41 8 57 25 20 21 22 28 12 50 -12 26 -4 33 16 13 19 -19 14 -44 -14 -77 -23 -28 -24 -31 -7 -31 30 0 63 42 63 80 0 45 -23 67 -86 86 -54 16 -80 36 -69 54 9 15 50 12 92 -5 39 -16 47 -13 57 22 9 28 -14 41 -85 48 -36 4 -65 1 -86 -9z m3 -52 c-3 -8 1 -29 10 -47 l17 -31 -24 16 c-28 18 -35 43 -19 63 16 20 24 19 16 -1z"/> <path d="M360 296 c-3 -2 -4 -70 -2 -150 l3 -146 35 0 c34 0 34 1 33 43 0 23 -4 65 -8 92 -7 46 -8 48 -18 26 -10 -25 -10 -25 -16 7 -8 41 2 92 18 92 20 0 47 -48 39 -72 -4 -13 4 -47 22 -89 24 -61 30 -69 54 -69 24 0 30 8 57 78 17 42 26 80 21 83 -12 8 8 58 27 65 21 9 25 3 26 -37 2 -57 1 -63 -15 -50 -11 9 -14 1 -20 -41 -3 -29 -6 -70 -6 -90 0 -37 1 -38 35 -38 l35 0 0 140 c0 77 0 143 0 148 0 4 -18 7 -41 7 l-41 0 -37 -87 c-20 -48 -38 -88 -41 -88 -3 0 -21 40 -41 88 -37 87 -37 87 -76 90 -21 2 -41 1 -43 -2z m178 -198 c-17 -25 -31 -27 -36 -4 -2 8 6 16 20 19 13 2 25 5 27 6 2 0 -3 -9 -11 -21z"/> <path d="M893 283 c-4 -10 -32 -78 -64 -150 -50 -116 -55 -133 -39 -133 11 0 24 8 29 18 10 16 10 16 11 0 0 -29 20 -21 31 12 11 29 13 30 74 30 60 0 63 -1 75 -30 12 -30 21 -36 33 -24 10 10 -15 53 -39 69 -21 13 -22 18 -12 41 11 23 13 24 24 9 7 -10 20 -41 30 -71 13 -41 21 -54 36 -54 12 0 18 5 15 13 -3 6 -26 62 -52 122 -26 61 -52 122 -58 138 -10 23 -18 27 -50 27 -27 0 -40 -5 -44 -17z m75 -44 c2 -12 -5 -16 -28 -15 -28 1 -39 14 -23 30 12 12 48 2 51 -15z m-6 -76 c10 -26 16 -48 14 -51 -2 -2 -22 -2 -44 0 l-39 3 20 53 c11 29 22 50 26 47 3 -3 13 -27 23 -52z m-72 -75 c0 -4 -4 -8 -10 -8 -5 0 -18 -10 -30 -22 -24 -26 -26 -14 -4 38 15 36 17 37 30 19 8 -10 14 -22 14 -27z"/> <path d="M1190 151 c0 -128 2 -151 15 -151 16 0 17 10 17 130 -1 41 2 66 6 55 4 -11 15 -32 26 -48 17 -25 17 -29 2 -46 -21 -24 -22 -91 0 -91 12 0 15 9 12 43 -3 40 -2 42 27 45 27 3 33 -2 53 -43 13 -27 28 -45 35 -42 6 2 11 11 9 18 -1 9 3 8 11 -4 13 -16 47 -24 47 -11 0 3 -13 24 -29 48 l-29 42 24 21 c44 39 44 104 -1 149 -21 21 -33 24 -93 24 -38 0 -84 3 -101 6 l-31 7 0 -152z m173 70 c31 -40 2 -81 -57 -81 l-42 0 0 50 0 51 43 -3 c25 -1 49 -8 56 -17z m15 -116 c-12 -23 -16 -24 -27 -12 -10 12 -8 18 10 31 29 20 34 14 17 -19z"/> <path d="M1530 264 l0 -36 45 4 45 3 0 -117 c0 -96 3 -118 14 -118 9 0 16 12 18 33 3 31 -6 171 -13 212 -3 12 2 21 15 23 25 5 42 -13 28 -30 -11 -14 -14 -60 -13 -170 1 -53 4 -68 16 -68 12 0 15 20 15 118 l0 117 45 -3 45 -4 0 36 0 36 -130 0 -130 0 0 -36z"/> <path d="M1880 148 c0 -125 2 -148 15 -148 11 0 15 11 15 40 0 47 5 49 32 15 27 -35 89 -35 123 0 14 13 25 29 25 35 0 6 4 9 10 5 14 -8 1 -37 -29 -62 l-26 -22 27 -1 c31 0 68 41 68 76 0 25 -32 64 -51 64 -7 0 0 11 15 25 14 13 26 33 26 45 0 20 -41 70 -57 70 -4 0 -50 2 -100 3 l-93 3 0 -148z m60 107 c0 -2 -5 -16 -12 -29 -9 -22 -8 -29 7 -46 15 -17 16 -24 7 -45 -20 -44 -32 -28 -32 43 0 38 3 72 7 75 7 8 23 9 23 2z m105 -45 c0 -22 -5 -26 -43 -31 -50 -6 -52 -5 -52 33 0 28 1 29 48 26 43 -3 47 -5 47 -28z m3 -96 c7 -2 12 -14 10 -26 -3 -20 -10 -23 -55 -26 -52 -3 -53 -3 -53 26 0 16 3 31 6 35 6 5 64 0 92 -9z"/> <path d="M2240 150 c0 -127 2 -150 15 -150 8 0 16 7 16 15 1 8 3 20 4 25 1 6 4 54 6 108 l3 97 6 -119 c3 -83 9 -121 18 -124 9 -3 12 31 12 147 l0 151 -40 0 -40 0 0 -150z"/> <path d="M2419 295 c-1 -3 -1 -17 -2 -32 -1 -27 2 -28 44 -28 l44 0 -4 -118 c-3 -109 -2 -119 14 -115 16 3 17 16 16 112 -1 60 -6 117 -12 127 -12 24 -13 24 22 26 28 2 30 0 23 -20 -4 -12 -9 -73 -11 -134 -4 -97 -2 -113 11 -113 14 0 16 18 16 118 l0 117 45 -3 45 -4 0 36 0 36 -125 0 c-69 0 -125 -2 -126 -5z"/> <path d="M2763 287 c-8 -13 1 -278 10 -284 16 -10 18 5 22 118 2 63 4 120 4 127 1 6 8 12 16 12 12 0 13 -4 3 -26 -10 -21 -9 -31 7 -61 18 -33 18 -35 2 -44 -23 -13 -21 -55 3 -79 16 -16 33 -20 95 -20 60 0 75 3 75 15 0 12 -16 15 -80 15 l-80 0 0 30 0 30 70 0 70 0 0 30 0 30 -70 0 -70 0 0 31 0 31 75 -4 75 -3 0 30 0 30 -111 0 c-61 0 -113 -3 -116 -8z"/> </g> </svg> 